<?xml version="1.0" encoding="utf-8"?>
<!-- Generator: Adobe Illustrator 16.2.0, SVG Export Plug-In . SVG Version: 6.00 Build 0)  -->
<!DOCTYPE svg PUBLIC "-//W3C//DTD SVG 1.1//EN" "http://www.w3.org/Graphics/SVG/1.1/DTD/svg11.dtd">
<svg version="1.1" id="Слой_1" xmlns="http://www.w3.org/2000/svg" xmlns:xlink="http://www.w3.org/1999/xlink" x="0px" y="0px"
	 width="51.226px" height="70.9px" viewBox="0 0 51.226 70.9" enable-background="new 0 0 51.226 70.9" xml:space="preserve">
<g>
	<g opacity="0.4">
		<g>
			<path fill-rule="evenodd" clip-rule="evenodd" fill="#231F20" d="M31.627,67.054c8.03-7.833,17.033-25.734,17.033-35.597
				c0-12.873-10.319-23.308-23.048-23.308S2.565,18.584,2.565,31.457c0,9.858,9.256,27.749,17.205,35.587
				c-1.509,0.103-2.297,0.385-2.297,1.127c0,1.282,2.34,2.151,6.739,2.302c0.53,0.276,0.989,0.428,1.399,0.428
				c0.392,0,0.876-0.151,1.441-0.428c4.385-0.153,6.719-1.021,6.719-2.302C33.772,67.453,33.039,67.165,31.627,67.054z"/>
		</g>
	</g>
	<path fill-rule="evenodd" clip-rule="evenodd" fill="#9DCB3B" d="M25.612,0c14.146,0,25.613,11.422,25.613,25.513
		c0,11.868-12.091,34.375-21.545,41.177c-1.771,1.274-3.145,1.998-4.068,1.998c-0.973,0-2.175-0.728-3.915-2.007
		C12.43,59.866,0,37.375,0,25.513C0,11.422,11.467,0,25.612,0z"/>
	<path fill-rule="evenodd" clip-rule="evenodd" fill="#FFFFFF" d="M25.612,1.345c12.729,0,23.048,10.435,23.048,23.308
		c0,10.842-10.88,31.402-19.388,37.618c-1.593,1.164-2.828,1.824-3.66,1.824c-0.876,0-1.957-0.664-3.523-1.833
		C13.75,56.037,2.565,35.49,2.565,24.653C2.565,11.78,12.884,1.345,25.612,1.345z"/>
	<path fill-rule="evenodd" clip-rule="evenodd" fill="#FFD164" d="M25.376,12.806c7.072,0,12.806,5.734,12.806,12.806
		c0,7.073-5.733,12.807-12.806,12.807c-7.073,0-12.807-5.733-12.807-12.807C12.569,18.54,18.303,12.806,25.376,12.806z"/>
</g>
</svg>
