<?xml version="1.0" encoding="utf-8"?>
<!-- Generator: Adobe Illustrator 16.2.0, SVG Export Plug-In . SVG Version: 6.00 Build 0)  -->
<!DOCTYPE svg PUBLIC "-//W3C//DTD SVG 1.1//EN" "http://www.w3.org/Graphics/SVG/1.1/DTD/svg11.dtd">
<svg version="1.1" id="Layer_1" xmlns="http://www.w3.org/2000/svg" xmlns:xlink="http://www.w3.org/1999/xlink" x="0px" y="0px"
	 width="117.306px" height="48.363px" viewBox="0 0 117.306 48.363" enable-background="new 0 0 117.306 48.363"
	 xml:space="preserve">
<g>
	<g>
		<g opacity="0.2">
			<path fill="#404041" d="M17.939,35.88C8.047,35.88,0,27.833,0,17.941C0,8.048,8.047,0,17.939,0s17.939,8.048,17.939,17.941
				C35.879,27.833,27.832,35.88,17.939,35.88z M17.939,1.195c-9.233,0-16.744,7.512-16.744,16.746
				c0,9.233,7.511,16.744,16.744,16.744s16.744-7.511,16.744-16.744C34.684,8.708,27.172,1.195,17.939,1.195z"/>
		</g>
		<g opacity="0.6">
			<path fill="#404041" d="M17.814,29.332c-6.396,0-11.6-5.204-11.6-11.6c0-6.397,5.204-11.602,11.6-11.602
				c6.396,0,11.6,5.205,11.6,11.602C29.415,24.128,24.21,29.332,17.814,29.332z M17.814,7.308c-5.747,0-10.423,4.676-10.423,10.424
				c0,5.747,4.676,10.423,10.423,10.423s10.423-4.676,10.423-10.423C28.237,11.984,23.562,7.308,17.814,7.308z"/>
		</g>
		<circle fill-rule="evenodd" clip-rule="evenodd" fill="#404041" cx="17.814" cy="17.732" r="4.9"/>
		<path fill="#AEBE36" d="M57.364,8.179c0,1.269-0.136,2.409-0.407,3.421c-0.273,1.012-0.699,1.874-1.281,2.583
			c-0.582,0.71-1.333,1.254-2.254,1.631c-0.921,0.377-2.024,0.566-3.307,0.566c-1.224,0-2.285-0.185-3.184-0.555
			c-0.899-0.371-1.636-0.906-2.209-1.609c-0.574-0.702-1.001-1.559-1.28-2.571c-0.279-1.012-0.418-2.152-0.418-3.421
			c0-1.238,0.154-2.364,0.464-3.376c0.309-1.011,0.763-1.876,1.359-2.594c0.597-0.717,1.34-1.269,2.232-1.654
			s1.926-0.578,3.104-0.578c1.223,0,2.284,0.193,3.183,0.578c0.898,0.385,1.646,0.933,2.243,1.643
			c0.597,0.71,1.038,1.567,1.326,2.571C57.22,5.819,57.364,6.94,57.364,8.179z M52.855,8.201C52.84,7.612,52.79,7.05,52.708,6.513
			c-0.083-0.536-0.223-1-0.418-1.394c-0.197-0.392-0.47-0.706-0.817-0.94c-0.347-0.234-0.785-0.352-1.313-0.352
			c-0.438,0-0.824,0.114-1.156,0.34S48.399,4.7,48.188,5.085c-0.212,0.385-0.371,0.835-0.476,1.349
			c-0.106,0.514-0.158,1.05-0.158,1.608c0,0.695,0.045,1.322,0.136,1.881c0.09,0.559,0.241,1.03,0.453,1.416
			c0.211,0.385,0.491,0.684,0.838,0.895c0.347,0.212,0.778,0.317,1.292,0.317c0.498,0,0.914-0.116,1.246-0.351
			c0.332-0.234,0.596-0.551,0.793-0.951s0.336-0.865,0.419-1.394C52.813,9.327,52.855,8.776,52.855,8.201z"/>
		<path fill="#AEBE36" d="M63.532,7.544v8.112c0,0.181-0.027,0.306-0.079,0.374c-0.053,0.068-0.208,0.102-0.465,0.102h-3.217
			c-0.349,0-0.521-0.159-0.521-0.476V2.062c0-0.71,0.117-1.186,0.352-1.428c0.233-0.242,0.667-0.362,1.301-0.362h1.178
			c0.227,0,0.423,0.011,0.589,0.034c0.167,0.022,0.32,0.067,0.465,0.135c0.143,0.068,0.284,0.17,0.419,0.306
			c0.136,0.136,0.286,0.317,0.453,0.544l3.24,4.848l1.767,2.764h0.158V1.641c0-0.182,0.046-0.308,0.1-0.376
			c0.053-0.067,0.195-0.135,0.444-0.181l3.412-0.848c0.348,0,0.521,0.159,0.521,0.476v13.595c0,0.514-0.105,0.94-0.317,1.28
			c-0.211,0.34-0.85,0.546-1.53,0.546h-1.178c-0.211,0-0.404-0.011-0.577-0.034c-0.175-0.022-0.333-0.068-0.476-0.135
			c-0.145-0.068-0.289-0.17-0.432-0.306c-0.145-0.136-0.29-0.317-0.442-0.544l-3.194-4.758l-1.813-2.81H63.532z"/>
		<path fill="#AEBE36" d="M86.69,16.169l-6.817-0.038c-1.698,0.006-3.008-1.067-3.333-1.483c-0.324-0.415-0.547-0.88-0.669-1.394
			c-0.12-0.513-0.181-1.02-0.181-1.518v-7.25c0-0.544,0.076-1.076,0.227-1.598c0.151-0.521,0.396-0.981,0.736-1.382
			c0.341-0.4,0.789-0.721,1.349-0.963c0.559-0.242,1.024-0.272,1.824-0.272h6.685c0.181,0,0.298,0.026,0.351,0.079
			c0.054,0.053,0.079,0.208,0.079,0.465v2.56c0,0.196-0.03,0.329-0.09,0.397c-0.061,0.067-0.175,0.102-0.34,0.102h-5.392
			c-0.304,0-0.544,0.042-0.727,0.125c-0.181,0.083-0.317,0.186-0.407,0.306c-0.091,0.121-0.15,0.256-0.181,0.408
			c-0.032,0.15-0.046,0.302-0.046,0.453v0.952L85.26,6.1c0.181,0,0.298,0.03,0.352,0.09c0.053,0.061,0.079,0.22,0.079,0.476v2.356
			c0,0.347-0.145,0.521-0.431,0.521l-5.501,0.017v1.7c0,0.287,0.033,0.514,0.102,0.679c0.067,0.167,0.163,0.291,0.283,0.374
			c0.121,0.083,0.265,0.136,0.432,0.159c0.165,0.023,0.347,0.034,0.544,0.034l5.571,0.038c0.183,0,0.299,0.026,0.353,0.079
			c0.052,0.053,0.079,0.208,0.079,0.465v2.56C87.122,15.996,86.978,16.169,86.69,16.169z"/>
		<path fill="#AEBE36" d="M43.693,22.814v-2.537c0-0.257,0.035-0.412,0.103-0.465c0.068-0.053,0.192-0.079,0.374-0.079l12.003,0.017
			c0.181,0,0.306,0.026,0.374,0.079c0.068,0.053,0.174,0.178,0.102,0.465l-0.812,2.538c-0.122,0.339-0.233,0.521-0.55,0.521
			l-2.932,0.003v11.782c0,0.317-0.173,0.476-0.521,0.476h-3.218c-0.257,0-0.411-0.034-0.464-0.102
			c-0.052-0.067-0.079-0.193-0.079-0.374V23.355l-3.903-0.02C43.852,23.335,43.693,23.162,43.693,22.814z"/>
		<path fill="#AEBE36" d="M71.192,27.612c0,1.269-0.135,2.409-0.407,3.422c-0.271,1.012-0.699,1.873-1.279,2.583
			c-0.582,0.71-1.334,1.254-2.255,1.631c-0.921,0.378-2.024,0.566-3.309,0.566c-1.223,0-2.285-0.185-3.184-0.555
			c-0.899-0.371-1.635-0.906-2.208-1.608c-0.574-0.703-1-1.56-1.28-2.572c-0.28-1.013-0.42-2.152-0.42-3.421
			c0-1.238,0.155-2.364,0.464-3.376c0.31-1.012,0.763-1.876,1.36-2.594c0.596-0.718,1.34-1.27,2.231-1.655s1.926-0.578,3.104-0.578
			c1.224,0,2.284,0.192,3.184,0.578c0.898,0.385,1.646,0.933,2.243,1.643c0.596,0.71,1.038,1.567,1.325,2.572
			C71.05,25.253,71.192,26.374,71.192,27.612z M66.686,27.635c-0.017-0.589-0.065-1.151-0.147-1.688
			c-0.084-0.536-0.224-1.001-0.421-1.394c-0.196-0.393-0.468-0.706-0.814-0.94c-0.349-0.234-0.786-0.351-1.314-0.351
			c-0.439,0-0.823,0.113-1.156,0.34c-0.333,0.227-0.604,0.532-0.814,0.917c-0.212,0.385-0.371,0.835-0.478,1.349
			c-0.104,0.514-0.158,1.05-0.158,1.608c0,0.695,0.046,1.322,0.136,1.881s0.241,1.03,0.454,1.416
			c0.211,0.385,0.49,0.684,0.839,0.895c0.347,0.212,0.776,0.317,1.29,0.317c0.5,0,0.915-0.116,1.246-0.352
			c0.333-0.233,0.598-0.551,0.795-0.951c0.194-0.4,0.334-0.864,0.418-1.394C66.643,28.761,66.686,28.21,66.686,27.635z"/>
		<path fill="#AEBE36" d="M86.575,33.416c0,0.483-0.102,0.917-0.307,1.303c-0.204,0.385-0.601,0.661-1.188,0.826
			c-0.303,0.092-0.666,0.159-1.088,0.204c-0.423,0.046-0.839,0.08-1.246,0.103s-0.79,0.037-1.145,0.045
			c-0.355,0.008-0.615,0.012-0.782,0.012c-1.344,0-2.495-0.102-3.454-0.306s-1.749-0.563-2.369-1.076
			c-0.618-0.514-1.075-1.197-1.369-2.051c-0.295-0.854-0.442-1.93-0.442-3.229v-8.145c0-0.317,0.179-0.452,0.521-0.536l3.217-0.812
			c0.29-0.059,0.412,0.034,0.465,0.102c0.052,0.068,0.079,0.192,0.079,0.374v9.425c0,0.892,0.211,1.533,0.634,1.926
			c0.424,0.394,1.156,0.59,2.197,0.59c0.076,0,0.205,0,0.386,0c0.182,0,0.374-0.008,0.578-0.022c0.203-0.016,0.404-0.026,0.6-0.034
			c0.196-0.008,0.355-0.026,0.478-0.057V20.229c0-0.317,0.173-0.476,0.52-0.476h3.195c0.257,0,0.412,0.034,0.464,0.102
			c0.054,0.068,0.079,0.192,0.079,0.374L86.575,33.416z"/>
		<path fill="#AEBE36" d="M96.335,31.974c0.771,0,1.427-0.09,1.971-0.271s1.058-0.362,1.541-0.544
			c0.227-0.091,0.389-0.121,0.487-0.091c0.098,0.03,0.199,0.174,0.306,0.431l0.976,2.039c0.104,0.227,0.15,0.4,0.135,0.521
			c-0.015,0.12-0.105,0.226-0.271,0.317c-0.907,0.544-1.813,0.917-2.719,1.121c-0.907,0.204-1.851,0.306-2.832,0.306
			c-1.346,0-2.481-0.208-3.41-0.623s-1.686-0.985-2.266-1.711c-0.582-0.725-1.005-1.585-1.271-2.583
			c-0.263-0.996-0.396-2.084-0.396-3.263c0-1.223,0.182-2.333,0.543-3.33c0.363-0.997,0.872-1.854,1.53-2.571
			c0.656-0.718,1.446-1.272,2.367-1.666c0.921-0.393,1.94-0.589,3.06-0.589c0.876,0,1.695,0.072,2.458,0.215
			c0.763,0.145,1.476,0.404,2.142,0.782c0.121,0.076,0.214,0.136,0.282,0.182c0.068,0.045,0.106,0.102,0.114,0.17
			c0.007,0.067,0,0.15-0.023,0.249c-0.022,0.098-0.063,0.223-0.124,0.374l-0.793,1.857c-0.105,0.287-0.207,0.458-0.306,0.51
			c-0.099,0.053-0.284,0.034-0.555-0.056c-0.303-0.091-0.576-0.17-0.816-0.238c-0.241-0.068-0.479-0.125-0.714-0.171
			c-0.234-0.045-0.468-0.075-0.702-0.09s-0.487-0.023-0.76-0.023c-0.937,0-1.699,0.374-2.288,1.122
			c-0.59,0.747-0.885,1.839-0.885,3.273c0,1.421,0.246,2.501,0.738,3.241C94.344,31.604,95.172,31.974,96.335,31.974z"/>
		<path fill="#AEBE36" d="M117.227,35.441c-0.054,0.068-0.207,0.103-0.464,0.103h-3.238c-0.348,0-0.521-0.158-0.521-0.476v-5.982
			h-4.895v5.982c0,0.181-0.026,0.306-0.079,0.373c-0.053,0.068-0.208,0.103-0.465,0.103h-3.333c-0.349,0-0.521-0.158-0.521-0.476
			V20.159c0-0.317,0.173-0.476,0.521-0.476h3.333c0.257,0,0.412,0.034,0.465,0.102c0.053,0.068,0.079,0.192,0.079,0.374v5.347h4.895
			V21.07c0-0.317,0.181-0.505,0.463-0.558l3.296-0.828c0.24-0.06,0.41,0.034,0.464,0.102c0.053,0.068,0.079,0.067,0.079,0.374
			v14.909C117.306,35.249,117.279,35.374,117.227,35.441z"/>
	</g>
	<g>
		<path fill="#404041" stroke="#404041" stroke-width="0.4" stroke-miterlimit="10" d="M44.549,47.97
			c-0.109,0-0.187-0.023-0.235-0.068c-0.048-0.046-0.071-0.123-0.071-0.231v-3.964c0-0.1,0.022-0.176,0.065-0.229
			c0.043-0.052,0.123-0.077,0.241-0.077l1.147-0.007c0.339,0,0.636,0.052,0.89,0.156c0.254,0.104,0.467,0.256,0.639,0.453
			c0.172,0.198,0.301,0.437,0.388,0.717s0.13,0.593,0.13,0.936c0,0.344-0.04,0.657-0.12,0.942c-0.081,0.284-0.203,0.527-0.366,0.729
			s-0.37,0.359-0.619,0.473c-0.25,0.113-0.543,0.17-0.877,0.17H44.549z M47.222,45.668c0-0.247-0.026-0.48-0.079-0.7
			c-0.052-0.22-0.137-0.412-0.257-0.577s-0.279-0.296-0.48-0.391c-0.199-0.096-0.445-0.144-0.736-0.144h-0.919v3.65h0.952
			c0.282,0,0.52-0.047,0.713-0.141c0.193-0.093,0.35-0.222,0.47-0.384c0.12-0.163,0.205-0.356,0.257-0.581
			C47.196,46.178,47.222,45.934,47.222,45.668z"/>
		<path fill="#404041" stroke="#404041" stroke-width="0.4" stroke-miterlimit="10" d="M51.133,47.953
			c-0.012,0.011-0.037,0.017-0.071,0.017h-0.326c-0.035,0-0.058-0.006-0.071-0.017s-0.02-0.033-0.02-0.068v-4.394
			c0-0.035,0.006-0.058,0.02-0.068s0.036-0.017,0.071-0.017h0.326c0.035,0,0.059,0.006,0.071,0.017
			c0.013,0.011,0.02,0.033,0.02,0.068v4.394C51.153,47.92,51.146,47.942,51.133,47.953z"/>
		<path fill="#404041" stroke="#404041" stroke-width="0.4" stroke-miterlimit="10" d="M56.03,47.585
			c0.047,0,0.109-0.002,0.186-0.007c0.076-0.004,0.158-0.013,0.248-0.026c0.089-0.013,0.182-0.032,0.277-0.059
			c0.095-0.025,0.187-0.059,0.274-0.098l-0.009-1.389c0-0.094-0.117-0.19-0.187-0.195c-0.07-0.004-0.135-0.006-0.195-0.006
			c-0.274-0.002-0.507,0.116-0.659,0.19c-0.035,0.013-0.061,0.021-0.079,0.026c-0.017,0.004-0.037-0.011-0.058-0.046l-0.105-0.229
			c-0.025-0.043-0.015-0.085,0.033-0.124c0.139-0.096,0.422-0.275,0.849-0.275c0.112,0,0.208,0.004,0.286,0.01
			c0.079,0.007,0.161,0.017,0.248,0.029c0.139,0.026,0.236,0.072,0.29,0.137c0.055,0.065,0.082,0.17,0.082,0.313v1.682
			c0,0.048-0.007,0.088-0.019,0.121c-0.013,0.032-0.042,0.06-0.085,0.081c-0.117,0.069-0.244,0.125-0.381,0.166
			c-0.137,0.042-0.27,0.074-0.4,0.098c-0.131,0.024-0.252,0.04-0.365,0.046c-0.113,0.007-0.207,0.01-0.281,0.01
			c-0.295,0-0.562-0.046-0.798-0.137s-0.438-0.231-0.603-0.421c-0.166-0.188-0.292-0.428-0.381-0.717s-0.133-0.631-0.133-1.026
			c0-0.369,0.046-0.702,0.14-0.998c0.094-0.295,0.226-0.547,0.398-0.756c0.171-0.208,0.379-0.368,0.625-0.479
			c0.246-0.111,0.518-0.167,0.817-0.167c0.187,0,0.388,0.018,0.6,0.053c0.213,0.035,0.43,0.108,0.652,0.222
			c0.021,0.013,0.036,0.029,0.042,0.049c0.007,0.02,0.001,0.047-0.017,0.081l-0.123,0.274c-0.018,0.025-0.033,0.042-0.046,0.049
			c-0.013,0.006-0.035,0.003-0.065-0.01c-0.161-0.079-0.332-0.135-0.512-0.17c-0.181-0.034-0.353-0.052-0.519-0.052
			c-0.265,0-0.491,0.052-0.678,0.156s-0.34,0.244-0.459,0.42c-0.12,0.177-0.207,0.381-0.261,0.613s-0.082,0.475-0.082,0.727
			c0,0.266,0.024,0.51,0.072,0.733c0.047,0.224,0.128,0.417,0.241,0.58c0.113,0.163,0.263,0.29,0.45,0.382
			C55.525,47.539,55.756,47.585,56.03,47.585z"/>
		<path fill="#404041" stroke="#404041" stroke-width="0.4" stroke-miterlimit="10" d="M91.866,47.57
			c0.048,0,0.109-0.002,0.186-0.007c0.076-0.004,0.158-0.013,0.248-0.025c0.089-0.013,0.182-0.033,0.277-0.059
			c0.095-0.026,0.187-0.059,0.273-0.098l-0.009-1.39c0-0.094-0.117-0.19-0.187-0.195c-0.07-0.004-0.135-0.006-0.195-0.006
			c-0.274-0.002-0.508,0.116-0.66,0.19c-0.034,0.013-0.06,0.021-0.078,0.026c-0.017,0.004-0.036-0.011-0.058-0.046l-0.105-0.228
			c-0.025-0.044-0.015-0.085,0.033-0.125c0.139-0.095,0.422-0.274,0.849-0.274c0.112,0,0.208,0.003,0.286,0.009
			c0.078,0.007,0.161,0.017,0.248,0.03c0.139,0.025,0.235,0.071,0.29,0.137c0.055,0.064,0.081,0.169,0.081,0.313v1.682
			c0,0.049-0.007,0.089-0.019,0.121c-0.014,0.032-0.042,0.06-0.086,0.081c-0.117,0.07-0.244,0.125-0.381,0.167
			c-0.137,0.041-0.271,0.073-0.4,0.098c-0.131,0.023-0.253,0.039-0.365,0.046c-0.113,0.006-0.207,0.01-0.281,0.01
			c-0.295,0-0.562-0.046-0.798-0.138c-0.237-0.091-0.438-0.231-0.604-0.42c-0.165-0.189-0.292-0.429-0.381-0.717
			c-0.09-0.29-0.134-0.632-0.134-1.027c0-0.369,0.047-0.701,0.14-0.997c0.094-0.296,0.226-0.548,0.398-0.757
			c0.172-0.208,0.38-0.368,0.626-0.479c0.245-0.111,0.518-0.166,0.817-0.166c0.187,0,0.388,0.017,0.6,0.052
			c0.213,0.035,0.431,0.108,0.652,0.222c0.022,0.013,0.036,0.029,0.042,0.049c0.007,0.02,0.002,0.047-0.017,0.082l-0.123,0.273
			c-0.018,0.025-0.032,0.042-0.046,0.049c-0.013,0.007-0.035,0.003-0.065-0.01c-0.16-0.078-0.331-0.135-0.512-0.17
			c-0.181-0.034-0.353-0.052-0.519-0.052c-0.265,0-0.49,0.052-0.678,0.156c-0.187,0.104-0.34,0.245-0.459,0.421
			c-0.12,0.176-0.207,0.38-0.261,0.612c-0.055,0.232-0.082,0.475-0.082,0.727c0,0.266,0.024,0.51,0.072,0.733
			s0.128,0.417,0.241,0.58s0.263,0.29,0.45,0.382C91.362,47.525,91.593,47.57,91.866,47.57z"/>
		<path fill="#404041" stroke="#404041" stroke-width="0.4" stroke-miterlimit="10" d="M60.932,47.953
			c-0.013,0.011-0.037,0.017-0.071,0.017h-0.326c-0.035,0-0.058-0.006-0.071-0.017s-0.02-0.033-0.02-0.068v-4.394
			c0-0.035,0.006-0.058,0.02-0.068s0.036-0.017,0.071-0.017h0.326c0.035,0,0.059,0.006,0.071,0.017
			c0.013,0.011,0.02,0.033,0.02,0.068v4.394C60.952,47.92,60.945,47.942,60.932,47.953z"/>
		<path fill="#404041" stroke="#404041" stroke-width="0.4" stroke-miterlimit="10" d="M65.473,47.953
			c-0.011,0.011-0.032,0.017-0.063,0.017h-0.346c-0.034,0-0.058-0.006-0.071-0.017c-0.013-0.011-0.02-0.033-0.02-0.068V43.85H63.67
			c-0.035,0-0.056-0.005-0.065-0.017c-0.009-0.011-0.013-0.033-0.013-0.068v-0.267c0-0.035,0.004-0.06,0.013-0.072
			c0.01-0.013,0.03-0.02,0.065-0.02h3.168c0.035,0,0.058,0.007,0.068,0.02s0.017,0.037,0.017,0.072v0.267
			c0,0.035-0.006,0.058-0.017,0.068c-0.011,0.012-0.033,0.017-0.068,0.017h-1.35v4.035C65.488,47.92,65.483,47.942,65.473,47.953z"
			/>
		<path fill="#404041" stroke="#404041" stroke-width="0.4" stroke-miterlimit="10" d="M71.987,47.97
			c-0.035,0-0.062-0.003-0.081-0.01s-0.036-0.031-0.049-0.075l-0.346-1.004h-1.937c-0.013,0.03-0.035,0.095-0.068,0.192
			c-0.032,0.098-0.067,0.202-0.104,0.313c-0.037,0.111-0.072,0.215-0.105,0.311c-0.032,0.095-0.055,0.158-0.068,0.188
			c-0.017,0.057-0.057,0.085-0.117,0.085h-0.371c-0.035,0-0.058-0.011-0.068-0.033c-0.011-0.021-0.012-0.046-0.004-0.071
			l1.507-4.243c0.034-0.092,0.068-0.151,0.104-0.18s0.096-0.045,0.183-0.049h0.169c0.101,0,0.168,0.017,0.203,0.049
			c0.034,0.032,0.066,0.092,0.098,0.18l1.486,4.243c0.008,0.021,0.008,0.045,0,0.068c-0.009,0.023-0.03,0.036-0.065,0.036H71.987z
			 M70.879,44.938l-0.319-0.991h-0.032l-0.313,0.965l-0.502,1.52h1.656L70.879,44.938z"/>
		<path fill="#404041" stroke="#404041" stroke-width="0.4" stroke-miterlimit="10" d="M77.936,47.946
			c-0.011,0.016-0.034,0.023-0.068,0.023H76.01c-0.2,0-0.367-0.028-0.502-0.085s-0.242-0.134-0.323-0.231
			c-0.08-0.098-0.138-0.213-0.172-0.346c-0.035-0.133-0.053-0.272-0.053-0.42v-3.403c0-0.061,0.03-0.091,0.091-0.091h0.32
			c0.061,0,0.091,0.03,0.091,0.091v3.436c0,0.195,0.047,0.343,0.141,0.44c0.093,0.098,0.244,0.146,0.452,0.146h1.813
			c0.034,0,0.058,0.008,0.068,0.022c0.012,0.016,0.017,0.038,0.017,0.068v0.274C77.952,47.906,77.947,47.932,77.936,47.946z"/>
		<path fill="#404041" stroke="#404041" stroke-width="0.4" stroke-miterlimit="10" d="M87.065,47.97
			c-0.034,0-0.062-0.003-0.081-0.01s-0.036-0.031-0.049-0.075l-0.346-1.004h-1.937c-0.013,0.03-0.035,0.095-0.068,0.192
			c-0.032,0.098-0.067,0.202-0.104,0.313c-0.037,0.111-0.072,0.215-0.104,0.311c-0.033,0.095-0.056,0.158-0.069,0.188
			c-0.017,0.057-0.056,0.085-0.117,0.085h-0.371c-0.035,0-0.058-0.011-0.068-0.033c-0.011-0.021-0.012-0.046-0.003-0.071
			l1.506-4.243c0.034-0.092,0.069-0.151,0.104-0.18c0.035-0.028,0.096-0.045,0.183-0.049h0.169c0.101,0,0.168,0.017,0.203,0.049
			c0.034,0.032,0.066,0.092,0.098,0.18l1.486,4.243c0.009,0.021,0.009,0.045,0,0.068s-0.03,0.036-0.065,0.036H87.065z
			 M85.957,44.938l-0.319-0.991h-0.032l-0.313,0.965l-0.502,1.52h1.656L85.957,44.938z"/>
		<path fill="#404041" stroke="#404041" stroke-width="0.4" stroke-miterlimit="10" d="M99.151,47.94
			c-0.014,0.02-0.041,0.029-0.085,0.029h-1.813c-0.204,0-0.374-0.028-0.512-0.085c-0.137-0.057-0.245-0.134-0.326-0.231
			c-0.08-0.098-0.138-0.212-0.172-0.342c-0.035-0.131-0.053-0.27-0.053-0.418v-2.412c0-0.147,0.02-0.287,0.059-0.42
			s0.101-0.248,0.187-0.346c0.084-0.098,0.193-0.175,0.329-0.231c0.134-0.056,0.297-0.084,0.488-0.084h1.767
			c0.044,0,0.071,0.01,0.085,0.028c0.013,0.021,0.02,0.049,0.02,0.089v0.228c0,0.044-0.007,0.073-0.02,0.088
			c-0.014,0.016-0.041,0.023-0.085,0.023h-1.76c-0.2,0-0.345,0.046-0.434,0.137s-0.134,0.23-0.134,0.417v0.913h2.118
			c0.04,0,0.065,0.007,0.079,0.022c0.013,0.016,0.02,0.045,0.02,0.088v0.215c0,0.035-0.007,0.063-0.02,0.082
			c-0.014,0.02-0.039,0.029-0.079,0.029h-2.118v1.199c0,0.165,0.043,0.298,0.127,0.397c0.085,0.101,0.231,0.15,0.44,0.15h1.806
			c0.044,0,0.071,0.009,0.085,0.026c0.013,0.017,0.02,0.048,0.02,0.091v0.229C99.171,47.891,99.164,47.921,99.151,47.94z"/>
		<path fill="#404041" stroke="#404041" stroke-width="0.4" stroke-miterlimit="10" d="M102.339,44.117v3.768
			c0,0.035-0.006,0.058-0.02,0.068c-0.013,0.011-0.037,0.017-0.072,0.017h-0.313c-0.03,0-0.053-0.006-0.068-0.017
			s-0.022-0.033-0.022-0.068v-4.198c0-0.096,0.02-0.167,0.058-0.215c0.04-0.048,0.113-0.071,0.223-0.071h0.144
			c0.082,0,0.142,0.017,0.179,0.052s0.081,0.096,0.134,0.183l1.643,2.686l0.554,0.938h0.026v-3.774c0-0.034,0.007-0.058,0.02-0.068
			c0.014-0.011,0.037-0.016,0.071-0.016h0.313c0.03,0,0.053,0.005,0.068,0.016c0.015,0.011,0.022,0.034,0.022,0.068v4.198
			c0,0.091-0.019,0.162-0.055,0.212c-0.037,0.05-0.11,0.075-0.219,0.075h-0.15c-0.087,0-0.148-0.019-0.186-0.056
			s-0.081-0.099-0.133-0.186l-1.702-2.777l-0.495-0.834H102.339z"/>
		<path fill="#404041" stroke="#404041" stroke-width="0.4" stroke-miterlimit="10" d="M110.096,47.572
			c0.196,0,0.383-0.023,0.561-0.069c0.179-0.045,0.351-0.107,0.516-0.186c0.044-0.018,0.074-0.02,0.091-0.006
			c0.018,0.013,0.03,0.03,0.04,0.052l0.104,0.229c0.021,0.043,0.029,0.073,0.022,0.091c-0.006,0.018-0.022,0.035-0.049,0.052
			c-0.108,0.065-0.223,0.118-0.342,0.156c-0.119,0.04-0.238,0.071-0.358,0.095c-0.119,0.024-0.236,0.04-0.353,0.046
			c-0.114,0.007-0.221,0.01-0.315,0.01c-0.3,0-0.567-0.046-0.803-0.137c-0.234-0.091-0.435-0.23-0.599-0.417
			c-0.166-0.188-0.291-0.424-0.378-0.711c-0.087-0.286-0.131-0.628-0.131-1.023c0-0.369,0.047-0.703,0.14-1.001
			c0.094-0.297,0.227-0.551,0.398-0.759c0.172-0.209,0.376-0.37,0.615-0.482c0.239-0.113,0.504-0.17,0.795-0.17
			c0.188,0,0.381,0.018,0.581,0.053c0.199,0.035,0.411,0.108,0.632,0.222c0.021,0.008,0.037,0.022,0.046,0.042
			s0.002,0.049-0.02,0.088l-0.124,0.248c-0.013,0.021-0.025,0.037-0.039,0.045c-0.013,0.01-0.035,0.007-0.065-0.006
			c-0.165-0.078-0.33-0.135-0.495-0.17c-0.165-0.034-0.33-0.052-0.495-0.052c-0.257,0-0.476,0.055-0.658,0.163
			c-0.184,0.108-0.333,0.252-0.45,0.43c-0.117,0.179-0.204,0.385-0.261,0.619c-0.057,0.235-0.085,0.479-0.085,0.73
			c0,0.261,0.025,0.502,0.075,0.724s0.134,0.414,0.251,0.577s0.271,0.29,0.46,0.381C109.591,47.526,109.823,47.572,110.096,47.572z"
			/>
		<path fill="#404041" stroke="#404041" stroke-width="0.4" stroke-miterlimit="10" d="M115.572,46.118v1.767
			c0,0.035-0.005,0.058-0.017,0.068c-0.011,0.011-0.033,0.017-0.067,0.017h-0.313c-0.035,0-0.059-0.006-0.071-0.017
			c-0.014-0.011-0.021-0.033-0.021-0.068v-1.761l-1.473-2.659c-0.009-0.013-0.01-0.026-0.003-0.042
			c0.006-0.016,0.022-0.022,0.049-0.022h0.404c0.052,0,0.089,0.023,0.11,0.071l0.646,1.206l0.502,0.978h0.025l0.522-1.011
			l0.625-1.173c0.022-0.048,0.06-0.071,0.111-0.071h0.378c0.021,0,0.035,0.008,0.039,0.025c0.005,0.018,0.005,0.03,0,0.039
			L115.572,46.118z"/>
	</g>
</g>
</svg>
