<?xml version="1.0" encoding="utf-8"?>
<!-- Generator: Adobe Illustrator 16.2.0, SVG Export Plug-In . SVG Version: 6.00 Build 0)  -->
<!DOCTYPE svg PUBLIC "-//W3C//DTD SVG 1.1//EN" "http://www.w3.org/Graphics/SVG/1.1/DTD/svg11.dtd">
<svg version="1.1" id="Слой_1" xmlns="http://www.w3.org/2000/svg" xmlns:xlink="http://www.w3.org/1999/xlink" x="0px" y="0px"
	 width="371.998px" height="228px" viewBox="0 0 371.998 228" enable-background="new 0 0 371.998 228" xml:space="preserve">
<g>
	<path d="M213.702,41.454l-27.248,67.364c0,0,0-34.978,0-36.273c0-2.591-1.297-3.886-3.893-3.886c-2.595,0-36.33,0-36.33,0
		L213.702,41.454 M213.702,38.863c-0.327,0-0.656,0.062-0.972,0.188l-67.471,27.205c-1.152,0.464-1.813,1.679-1.575,2.896
		c0.237,1.218,1.305,2.097,2.547,2.097h36.33c1.297,0,1.297,0,1.297,1.295v36.273c0,1.24,0.881,2.307,2.1,2.543
		c0.166,0.032,0.333,0.048,0.497,0.048c1.04,0,2.003-0.628,2.405-1.621l27.248-67.363c0.39-0.964,0.164-2.067-0.572-2.802
		C215.041,39.127,214.376,38.863,213.702,38.863L213.702,38.863z"/>
	<path d="M185.156,6.478c35.057,0,63.578,28.476,63.578,63.477c0,35.002-28.521,63.478-63.578,63.478s-63.578-28.476-63.578-63.478
		C121.578,34.953,150.099,6.478,185.156,6.478 M185.156,0c-38.697,0-70.065,31.319-70.065,69.954s31.368,69.955,70.065,69.955
		c38.696,0,70.065-31.32,70.065-69.955S223.852,0,185.156,0L185.156,0z"/>
	<path fill-rule="evenodd" clip-rule="evenodd" d="M186.454,53.113h-2.595V2.591h2.595V53.113z"/>
	<path fill-rule="evenodd" clip-rule="evenodd" d="M252.626,68.659v2.591h-50.603v-2.591H252.626z"/>
	<path d="M54.108,218.527c0,0.891-0.494,1.646-1.115,2.267C46.964,225.598,40.075,228,32.506,228
		c-8.948,0-16.637-3.164-22.975-9.493C3.192,212.178,0,204.547,0,195.613c0-8.933,3.158-16.563,9.497-22.893
		s13.976-9.493,22.923-9.493c7.732,0,14.608,2.47,20.636,7.408c0.622,0.647,0.931,1.417,0.931,2.308s-0.318,1.653-0.954,2.287
		c-0.635,0.634-1.399,0.951-2.291,0.951c-0.892,0-1.663-0.324-2.312-0.972c-4.569-3.67-9.907-5.506-16.016-5.506
		c-7.164,0-13.279,2.53-18.348,7.591s-7.603,11.167-7.603,18.318c0,7.152,2.534,13.259,7.603,18.318
		c5.068,5.061,11.366,7.591,18.53,7.591c5.595,0,9.833-1.538,15.022-4.615v-14.816H34.442c-0.892,0-1.656-0.317-2.291-0.951
		c-0.636-0.634-0.953-1.396-0.953-2.287s0.317-1.654,0.953-2.288c0.635-0.634,1.399-0.951,2.291-0.951H50.54
		c0.864,0,1.804,0.311,2.453,0.932c0.621,0.647,1.115,1.417,1.115,2.308V218.527z"/>
	<path d="M96.459,216.988c0.892,0,1.656,0.317,2.291,0.952c0.636,0.633,0.771,1.396,0.771,2.287s-0.128,1.659-0.75,2.308
		c-4.189,3.644-9.123,5.465-14.8,5.465c-6.271,0-11.623-2.213-16.057-6.64c-4.432-4.426-6.65-9.77-6.65-16.031
		c0-6.261,2.218-11.604,6.65-16.031c4.434-4.426,9.786-6.639,16.057-6.639c6.272,0,11.625,2.213,16.057,6.639
		c4.434,4.427,6.65,9.771,6.65,16.031c0,0.891-0.317,1.681-0.953,2.315c-0.635,0.633-1.399,0.924-2.074,0.924H68.38
		c0.377,2.591,1.737,5.87,4.116,8.245c3.163,3.158,6.988,4.723,11.475,4.723c4.055,0,7.542-1.289,10.461-3.853
		C95.027,217.224,95.703,216.988,96.459,216.988z M99.906,202.091c-0.594-3.104-2.081-5.844-4.46-8.218
		c-3.163-3.158-6.987-4.736-11.475-4.736c-4.487,0-8.312,1.578-11.475,4.736c-2.378,2.374-3.865,5.114-4.46,8.218H99.906z"/>
	<path d="M131.23,221.522c0.892,0,1.615,0.317,2.25,0.951s0.934,1.397,0.934,2.288s-0.33,1.653-0.963,2.287
		c-0.636,0.634-1.325,0.951-2.217,0.951c-10.812,0-16.143-5.398-16.143-16.193v-22.67h-3.403c-0.892,0-1.658-0.318-2.291-0.952
		c-0.636-0.634-0.953-1.396-0.953-2.287s0.317-1.653,0.953-2.287c0.633-0.634,1.399-0.951,2.291-0.951h3.403v-16.193
		c0-0.891,0.237-1.653,0.873-2.287c0.635-0.634,1.358-0.951,2.25-0.951s1.716,0.317,2.351,0.951
		c0.636,0.634,1.014,1.396,1.014,2.287v16.193h6.369c0.892,0,1.655,0.317,2.291,0.951c0.634,0.634,0.953,1.396,0.953,2.287
		s-0.319,1.653-0.953,2.287c-0.636,0.634-1.398,0.952-2.291,0.952h-6.369v22.67C121.578,218.284,124.742,221.522,131.23,221.522z"/>
	<path d="M142.338,166.466c0-0.891,0.471-1.653,1.106-2.287s1.476-0.951,2.368-0.951s1.54,0.317,2.176,0.951
		c0.635,0.634,0.837,1.396,0.837,2.287v55.057h32.745c0.892,0,1.655,0.317,2.291,0.951c0.635,0.634,0.953,1.397,0.953,2.288
		s-0.318,1.653-0.953,2.287c-0.636,0.634-1.399,0.951-2.291,0.951h-35.682c-0.892,0-1.81-0.317-2.444-0.951
		s-1.106-1.396-1.106-2.287V166.466z"/>
	<path d="M227.974,224.762c0,0.891-0.581,1.653-1.215,2.287c-0.636,0.634-1.53,0.951-2.422,0.951s-1.46-0.317-2.095-0.951
		s-0.756-1.396-0.756-2.287v-2.632c-5.19,3.913-9.183,5.87-14.859,5.87c-5.813,0-10.972-2.059-15.096-6.174
		c-4.121-4.115-6.375-9.074-6.375-14.877v-21.052c0-0.891,0.38-1.653,1.015-2.287c0.635-0.634,1.431-0.951,2.323-0.951
		s1.609,0.317,2.244,0.951s0.906,1.396,0.906,2.287v21.052c0,4.021,1.487,7.455,4.34,10.303c2.852,2.848,6.322,4.271,10.351,4.271
		c4.027,0,7.744-1.423,10.597-4.271s4.556-6.281,4.556-10.303v-21.052c0-0.891,0.056-1.653,0.69-2.287s1.269-0.951,2.16-0.951
		s1.853,0.317,2.487,0.951s1.149,1.396,1.149,2.287V224.762z"/>
	<path d="M235.759,185.897c0-0.891,0.289-1.653,0.925-2.287c0.634-0.634,1.384-0.951,2.275-0.951c0.893,0,1.678,0.317,2.313,0.951
		s0.975,1.396,0.975,2.287v2.632c3.893-3.913,8.893-5.87,14.569-5.87c5.811,0,10.467,2.059,14.589,6.174
		c4.123,4.115,5.873,9.074,5.873,14.877v21.052c0,0.891-0.021,1.653-0.656,2.287S275.37,228,274.479,228
		c-0.893,0-1.879-0.317-2.514-0.951s-1.174-1.396-1.174-2.287V203.71c0-4.021-1.13-7.455-3.981-10.303
		c-2.854-2.848-6.144-4.271-10.172-4.271s-7.364,1.423-10.217,4.271s-4.175,6.281-4.175,10.303v21.052
		c0,0.891-0.348,1.653-0.98,2.287c-0.637,0.634-1.414,0.951-2.307,0.951c-0.892,0-1.635-0.317-2.27-0.951s-0.931-1.396-0.931-2.287
		V185.897z"/>
	<path d="M318.805,216.907c0.893,0,1.656,0.318,2.291,0.952s0.953,1.396,0.953,2.287s-0.34,1.687-1.014,2.389
		c-4.189,3.644-9.123,5.465-14.799,5.465c-6.274,0-11.626-2.213-16.058-6.64c-4.434-4.426-6.65-9.77-6.65-16.031
		c0-6.261,2.217-11.604,6.65-16.031c4.432-4.426,9.783-6.639,16.058-6.639c5.676,0,10.609,1.821,14.799,5.465
		c0.756,0.675,1.137,1.512,1.137,2.511c0,0.891-0.32,1.653-0.953,2.287c-0.637,0.634-1.4,0.951-2.291,0.951
		c-0.785,0-1.475-0.243-2.068-0.729c-3.029-2.672-6.568-4.008-10.623-4.008c-4.488,0-8.313,1.578-11.476,4.736
		c-3.164,3.157-4.744,6.977-4.744,11.456c0,4.48,1.58,8.3,4.744,11.457c3.162,3.158,6.987,4.736,11.476,4.736
		c4.055,0,7.582-1.322,10.582-3.967C317.387,217.124,318.047,216.907,318.805,216.907z"/>
	<path d="M329.18,166.466c0-0.891,0.432-1.653,1.068-2.287c0.635-0.634,1.455-0.951,2.348-0.951s1.57,0.317,2.205,0.951
		s0.867,1.396,0.867,2.287v22.063c3.893-3.913,9.035-5.87,14.711-5.87c5.811,0,11.045,2.059,15.168,6.174s6.451,9.074,6.451,14.877
		v21.052c0,0.891-0.527,1.653-1.162,2.287c-0.637,0.634-1.504,0.951-2.396,0.951s-1.5-0.317-2.133-0.951
		c-0.637-0.634-0.795-1.396-0.795-2.287V203.71c0-4.021-1.639-7.455-4.488-10.303c-2.854-2.848-6.398-4.271-10.426-4.271
		s-7.633,1.423-10.484,4.271c-2.854,2.848-4.445,6.281-4.445,10.303v21.052c0,0.891-0.203,1.653-0.838,2.287
		c-0.637,0.634-1.342,0.951-2.234,0.951s-1.742-0.317-2.377-0.951s-1.039-1.396-1.039-2.287V166.466z"/>
</g>
</svg>
