<?xml version="1.0" encoding="utf-8"?>
<!-- Generator: Adobe Illustrator 16.2.0, SVG Export Plug-In . SVG Version: 6.00 Build 0)  -->
<!DOCTYPE svg PUBLIC "-//W3C//DTD SVG 1.1//EN" "http://www.w3.org/Graphics/SVG/1.1/DTD/svg11.dtd">
<svg version="1.1" id="Слой_1" xmlns="http://www.w3.org/2000/svg" xmlns:xlink="http://www.w3.org/1999/xlink" x="0px" y="0px"
	 width="51.226px" height="70.9px" viewBox="0 0 51.226 70.9" enable-background="new 0 0 51.226 70.9" xml:space="preserve">
<g>
	<path opacity="0.4" fill-rule="evenodd" clip-rule="evenodd" fill="#231F20" d="M31.351,67.023
		c8.03-7.833,17.712-26.292,17.712-36.154c-0.75,5-5.5,27.25-23.727,38C10.938,59.244,6.813,45.619,2.29,31.426
		c0,9.859,9.255,27.749,17.205,35.588c-1.51,0.102-2.297,0.384-2.297,1.126c0,1.283,2.341,2.151,6.739,2.303
		c0.53,0.275,0.989,0.427,1.399,0.427c0.392,0,0.876-0.151,1.441-0.428c4.385-0.153,6.719-1.021,6.719-2.302
		C33.497,67.422,32.763,67.134,31.351,67.023z"/>
	<g>
		<path opacity="0.3" fill-rule="evenodd" clip-rule="evenodd" fill="#010101" d="M25.563,69.118c-0.751,0-2.032-0.869-3.305-1.81
			C13.503,60.844,1.063,38.887,1.063,26.965c0-13.51,10.99-24.5,24.5-24.5s24.5,10.99,24.5,24.5
			c0,11.282-11.599,33.529-21.035,40.347C26.851,68.884,25.922,69.118,25.563,69.118z M25.552,12.234
			c-8.663,0-15.711,7.048-15.711,15.711c0,8.664,7.048,15.712,15.711,15.712c8.664,0,15.712-7.048,15.712-15.712
			C41.264,19.282,34.216,12.234,25.552,12.234z"/>
		<path fill="#FFFFFF" d="M25.563,3.465c12.958,0,23.5,10.542,23.5,23.5c0,10.822-11.563,32.992-20.62,39.536
			c-2.121,1.53-2.815,1.613-2.879,1.618c-0.203-0.006-0.825-0.223-2.711-1.615c-8.398-6.2-20.79-28.091-20.79-39.539
			C2.063,14.007,12.605,3.465,25.563,3.465 M25.552,44.657c9.215,0,16.712-7.497,16.712-16.711c0-9.215-7.497-16.712-16.712-16.712
			S8.841,18.731,8.841,27.946C8.841,37.16,16.337,44.657,25.552,44.657 M25.563,1.465c-14.083,0-25.5,11.417-25.5,25.5
			c0,11.857,12.375,34.337,21.602,41.148c1.732,1.279,2.929,2.006,3.898,2.006c0.92,0,2.288-0.725,4.051-1.996
			c9.412-6.801,21.449-29.295,21.449-41.158C51.063,12.881,39.646,1.465,25.563,1.465L25.563,1.465z M25.552,42.657
			c-8.125,0-14.711-6.586-14.711-14.711c0-8.124,6.586-14.712,14.711-14.712s14.712,6.588,14.712,14.712
			C40.264,36.071,33.677,42.657,25.552,42.657L25.552,42.657z"/>
	</g>
</g>
</svg>
