<?xml version="1.0" encoding="utf-8"?>
<!-- Generator: Adobe Illustrator 16.2.0, SVG Export Plug-In . SVG Version: 6.00 Build 0)  -->
<!DOCTYPE svg PUBLIC "-//W3C//DTD SVG 1.1//EN" "http://www.w3.org/Graphics/SVG/1.1/DTD/svg11.dtd">
<svg version="1.1" id="Слой_1" xmlns="http://www.w3.org/2000/svg" xmlns:xlink="http://www.w3.org/1999/xlink" x="0px" y="0px"
	 width="100px" height="100px" viewBox="0 0 100 100" enable-background="new 0 0 100 100" xml:space="preserve">
<g>
	<path fill-rule="evenodd" clip-rule="evenodd" fill="#EF3E25" d="M67.429,68c-1.113-3.602,0.795-9.219,3.676-10.11
		c2.881-0.891,6.239-0.844,7.354,2.758C78.69,61.402,72.583,65.723,67.429,68z"/>
	<g>
		<path fill="#9DCB3B" d="M50,0C22.43,0,0,22.43,0,49.999C0,77.569,22.43,100,50,100s50-22.431,50-50.001C100,22.43,77.57,0,50,0z
			 M50,98C23.533,98,2,76.467,2,49.999C2,23.532,23.533,2,50,2c26.468,0,48,21.532,48,47.999C98,76.467,76.468,98,50,98z"/>
		<path fill="#9DCB3B" d="M79.116,58.433c-0.304,0.37-0.619,0.753-0.857,1.161C75.255,64.743,64.5,71.996,50,71.996
			c-14.812,0-25.698-7.544-28.393-12.643c-0.225-0.426-0.547-0.813-0.858-1.188C20.447,57.801,19.99,57.251,19.99,57h-2
			c0,0.973,0.648,1.754,1.22,2.442c0.247,0.297,0.501,0.604,0.629,0.846C22.847,65.98,34.192,73.996,50,73.996
			c14.4,0,26.198-6.901,29.986-13.394c0.157-0.27,0.409-0.576,0.676-0.9c0.632-0.77,1.348-1.641,1.348-2.702h-2
			C80.01,57.346,79.515,57.948,79.116,58.433z"/>
		<path fill="#9DCB3B" d="M20.209,44.266c0.055-0.079,0.282-0.262,0.417-0.37c0.347-0.278,0.705-0.567,0.903-0.976
			c1.092-2.259,3.699-3.503,7.341-3.503c3.629,0,6.234,1.24,7.334,3.49c0.199,0.407,0.556,0.696,0.901,0.976
			c0.137,0.11,0.366,0.296,0.422,0.376c-0.018-0.025-0.064-0.121-0.064-0.259h2c0-0.781-0.61-1.275-1.1-1.672
			c-0.133-0.107-0.334-0.271-0.362-0.299c-1.433-2.931-4.762-4.612-9.132-4.612c-4.386,0-7.718,1.688-9.115,4.585
			c-0.052,0.069-0.251,0.229-0.383,0.335c-0.489,0.394-1.097,0.884-1.097,1.663h2C20.275,44.141,20.228,44.239,20.209,44.266z"/>
		<path fill="#9DCB3B" d="M62.21,44.266c0.055-0.079,0.281-0.262,0.416-0.37c0.348-0.278,0.705-0.567,0.903-0.976
			c1.093-2.259,3.699-3.503,7.341-3.503c3.629,0,6.234,1.24,7.334,3.49c0.199,0.407,0.557,0.696,0.902,0.976
			c0.137,0.11,0.365,0.296,0.422,0.376c-0.019-0.025-0.064-0.121-0.064-0.259h2c0-0.781-0.609-1.275-1.1-1.672
			c-0.133-0.107-0.334-0.271-0.362-0.299c-1.433-2.931-4.762-4.612-9.132-4.612c-4.387,0-7.718,1.688-9.115,4.585
			c-0.052,0.069-0.25,0.229-0.383,0.335c-0.488,0.394-1.097,0.884-1.097,1.663h2C62.275,44.141,62.228,44.239,62.21,44.266z"/>
	</g>
</g>
</svg>
